<svg width="20" height="25" viewBox="0 0 20 25" fill="none" xmlns="http://www.w3.org/2000/svg">
<path fill-rule="evenodd" clip-rule="evenodd" d="M6.74242 9.26371C6.74242 11.591 7.9175 14.0895 10.5186 14.0895C12.4467 14.0895 14.3861 12.5836 14.3861 9.22949C14.3861 6.28609 12.8574 4.30101 10.5871 4.30101C8.71609 4.30101 6.74242 5.60158 6.74242 9.26371ZM11.4884 0C16.1316 0 19.2575 3.68495 19.2575 9.16104C19.2575 14.5573 15.9605 18.3221 11.2602 18.3221C9.01271 18.3221 7.57524 17.3638 6.82228 16.6678C6.82228 16.8276 6.83369 17.0215 6.83369 17.2154V24.5283H2.0193V5.04256C2.0193 4.75735 1.92804 4.66608 1.64282 4.66608H0V0.399298H4.03861C5.89819 0.399298 6.37735 1.3462 6.46862 2.07635C7.22158 1.23212 8.78454 0 11.4884 0Z" fill="white"/>
</svg>
