<svg width="96" height="32" viewBox="0 0 96 32" fill="none" xmlns="http://www.w3.org/2000/svg">
<path d="M1.599 10.094C1.15673 9.76321 0.530047 9.85359 0.199266 10.2959C-0.131515 10.7381 -0.0411353 11.3648 0.401134 11.6956L1.00007 10.8948L1.599 10.094ZM18.0429 23.9491L17.4102 24.7234L18.0429 23.9491ZM34.6026 30.1529L34.5561 31.1518L34.6026 30.1529ZM51.8627 25.7344L51.34 24.8818L51.8627 25.7344ZM57.8083 16.7808L56.8084 16.7634L57.8083 16.7808ZM52.8677 9.04926L53.6735 8.457L52.8677 9.04926ZM41.6949 12.383L40.6949 12.376L41.6949 12.383ZM46.4178 19.4962L47.0507 18.722L46.4178 19.4962ZM64.0579 24.9218L63.8692 23.9397L64.0579 24.9218ZM77.1818 16.0195L76.4475 15.3406L76.4403 15.3484L76.4333 15.3564L77.1818 16.0195ZM95.2295 1.25241C95.2435 0.700296 94.8072 0.241417 94.2551 0.227472L85.258 0.000212488C84.7059 -0.0137346 84.247 0.422533 84.2331 0.974643C84.2191 1.52675 84.6554 1.98563 85.2075 1.99957L93.2049 2.20158L93.0029 10.199C92.989 10.7511 93.4252 11.21 93.9773 11.224C94.5295 11.2379 94.9883 10.8016 95.0023 10.2495L95.2295 1.25241ZM1.00007 10.8948L0.401134 11.6956C4.70109 14.9116 13.3402 21.3975 17.4102 24.7234L18.0429 23.9491L18.6757 23.1748C14.5647 19.8153 5.88487 13.2995 1.599 10.094L1.00007 10.8948ZM18.0429 23.9491L17.4102 24.7234C22.4369 28.8312 28.8819 30.8877 34.5561 31.1518L34.6026 30.1529L34.6491 29.154C29.3445 28.9071 23.3267 26.9755 18.6757 23.1748L18.0429 23.9491ZM34.6026 30.1529L34.5561 31.1518C41.7636 31.4873 47.6214 29.5078 52.3854 26.5869L51.8627 25.7344L51.34 24.8818C46.8741 27.62 41.4082 29.4686 34.6491 29.154L34.6026 30.1529ZM51.8627 25.7344L52.3854 26.5869C57.8092 23.2614 58.7675 19.1309 58.8081 16.7982L57.8083 16.7808L56.8084 16.7634C56.778 18.5106 56.1026 21.9618 51.34 24.8818L51.8627 25.7344ZM57.8083 16.7808L58.8081 16.7982C58.8345 15.2837 57.9222 13.8327 56.9559 12.5559C56.4536 11.8923 55.8821 11.2096 55.3217 10.5331C54.7546 9.84857 54.1916 9.1619 53.6735 8.457L52.8677 9.04926L52.062 9.64151C52.6181 10.3982 53.2147 11.1248 53.7816 11.809C54.3551 12.5014 54.892 13.143 55.3612 13.7629C56.3378 15.0533 56.8216 16.0065 56.8084 16.7634L57.8083 16.7808ZM52.8677 9.04926L53.6735 8.457C52.9327 7.44927 51.7679 6.88097 50.6589 6.55477C49.5316 6.22315 48.3274 6.102 47.3405 6.08342L47.3217 7.08325L47.3029 8.08307C48.176 8.0995 49.1909 8.20768 50.0946 8.47348C51.0166 8.74469 51.6947 9.1419 52.062 9.64151L52.8677 9.04926ZM47.3217 7.08325L47.3405 6.08342C45.2207 6.04353 43.5109 6.79741 42.3522 8.02914L43.0806 8.71433L43.8089 9.39951C44.5507 8.61101 45.7024 8.05295 47.3029 8.08307L47.3217 7.08325ZM43.0806 8.71433L42.3522 8.02914C41.1972 9.25697 40.7055 10.8605 40.6949 12.376L41.6949 12.383L42.6949 12.3899C42.7026 11.2771 43.0635 10.1919 43.8089 9.39951L43.0806 8.71433ZM41.6949 12.383L40.6949 12.376C40.684 13.9439 41.3308 15.3936 42.2595 16.6848C43.1887 17.9767 44.4484 19.1778 45.7848 20.2704L46.4178 19.4962L47.0507 18.722C45.7781 17.6815 44.6675 16.6076 43.8831 15.517C43.0982 14.4257 42.688 13.3854 42.6949 12.3899L41.6949 12.383ZM46.4178 19.4962L45.7848 20.2704C49.1265 23.0026 53.1484 24.5149 56.5833 25.2945C59.9865 26.0669 62.9586 26.1513 64.2466 25.9038L64.0579 24.9218L63.8692 23.9397C62.9673 24.1131 60.3034 24.088 57.026 23.3441C53.7804 22.6074 50.0772 21.1965 47.0507 18.722L46.4178 19.4962ZM64.0579 24.9218L64.2466 25.9038C69.1744 24.9568 74.0109 21.1066 77.9303 16.6826L77.1818 16.0195L76.4333 15.3564C72.6003 19.6828 68.1344 23.1201 63.8692 23.9397L64.0579 24.9218ZM77.1818 16.0195L77.916 16.6983C79.7267 14.74 81.8573 13.0547 84.0974 11.3404C86.3174 9.6414 88.6554 7.90679 90.7636 5.9024L90.0746 5.17766L89.3856 4.45293C87.374 6.36543 85.1407 8.02348 82.8819 9.75209C80.6431 11.4654 78.3873 13.2425 76.4475 15.3406L77.1818 16.0195ZM90.0746 5.17766L90.7636 5.9024C91.6566 5.05346 92.3948 4.35162 93.0601 3.71911C93.7254 3.08661 94.3177 2.52345 94.9189 1.95189L94.2299 1.22715L93.5408 0.502416C92.9396 1.07398 92.3473 1.63714 91.682 2.26964C91.0167 2.90214 90.2785 3.60399 89.3856 4.45293L90.0746 5.17766Z" fill="#1D4841"/>
</svg>
