<svg width="145" height="31" viewBox="0 0 145 31" fill="none" xmlns="http://www.w3.org/2000/svg">
<path d="M0.612572 28.9248C1.38736 28.2583 1.78781 30.0414 1.02273 30.5723C1.02365 30.5726 1.0247 30.5739 1.02566 30.5742C0.992179 30.5934 0.70883 30.4591 0.486595 30.2744C0.394105 30.1705 0.212755 30.1145 0.138939 30.0273C0.060104 29.943 0.0255562 29.8636 0.0110092 29.8408C-0.0328401 29.7815 0.0681317 29.6679 0.0735092 29.6338C0.0920002 29.5921 0.125452 29.5652 0.169212 29.5488C0.248172 29.5215 0.420658 29.5071 0.511986 29.5498C0.72685 29.617 0.980324 29.7057 1.1282 29.4561C1.2553 29.2015 0.459097 29.0534 0.612572 28.9248ZM133.657 0.286133C135.472 -0.486236 137.571 0.359078 138.343 2.1748L143.771 14.9336C144.635 16.9662 143.689 19.3147 141.657 20.1797L128.898 25.6084C127.082 26.3809 124.984 25.5345 124.211 23.7188C123.439 21.903 124.284 19.8048 126.1 19.0322L130.639 17.1006C130.626 17.096 130.612 17.0926 130.599 17.0879C130.445 17.0323 130.641 16.6742 130.632 16.6416C130.559 16.4282 130.08 16.1751 130.03 16.1367C129.754 15.9268 129.577 16.7618 129.458 16.7793C128.221 16.9362 127.228 16.527 126.113 16.2373C125.931 16.1898 126.217 15.764 126.123 15.7402C123.796 15.1727 121.48 14.9137 119.199 14.2119C119.255 13.9459 119.326 13.6547 119.368 13.4033C119.178 13.1771 118.866 14.0449 118.747 14.0576C116.99 14.2363 115.463 13.8038 113.902 13.4102C113.67 13.3534 114.037 12.9737 113.866 12.9033C113.46 12.7408 113.008 12.6736 112.562 12.7217C112.376 12.7439 112.526 13.162 112.34 13.1914C111.957 13.2521 111.505 13.1799 111.164 13.0391C110.999 12.9713 111.245 12.5738 111.139 12.541C109.835 12.1277 108.531 12.0463 107.221 11.6748C107.124 11.6425 107.33 11.2115 107.214 11.1836C105.378 10.737 103.795 10.7818 101.808 10.6025C100.293 10.4679 98.2963 10.3513 96.7503 9.83301C96.4329 9.72799 96.2439 10.0128 95.9231 9.63184C95.8527 9.547 95.6068 8.74479 95.2884 9.2627C95.2425 9.33702 95.2985 9.69705 95.1253 9.72168C94.2029 9.84528 93.2523 9.76386 92.3528 9.57324C92.2011 9.54223 92.4486 9.11707 92.2805 9.07617C91.8195 8.96871 91.3061 8.87604 90.8196 9.04102C90.6474 9.101 90.7601 9.81751 90.5403 9.45117C90.5192 9.41369 90.6518 9.03511 90.5296 8.99316C90.0837 8.84009 89.6635 9.18161 89.1985 8.84473C89.1242 8.78846 89.0654 7.95796 88.763 8.53809C88.7452 8.5757 88.8501 8.9289 88.6419 8.95703C88.0729 9.02965 87.3568 9.06797 86.7962 8.91309C86.5933 8.85682 86.8356 8.46211 86.7005 8.41504C86.1902 8.24414 85.6553 8.24244 85.1604 8.07324C85.0215 8.02234 85.1436 7.63406 85.1223 7.6123C84.9572 7.48466 84.7051 8.19777 84.6126 8.37012C84.2667 9.01877 83.7338 7.93973 83.679 7.80566C83.3667 7.00943 83.3921 7.90942 83.3206 8.0127C82.9803 8.50607 83.0202 7.7641 82.8821 7.66016C82.414 7.32017 81.8758 7.59322 81.4485 7.59668C81.1876 7.59949 81.3753 8.00924 81.346 8.04102C80.988 8.33063 80.6726 8.4557 80.3216 8.49902C80.175 8.51874 80.2156 8.19372 80.0579 8.1709C79.7039 8.12345 79.3148 8.30218 78.9426 8.21875C78.836 8.19308 78.9705 7.77334 78.844 7.73926C78.2227 7.5814 77.738 8.04013 77.0589 7.69824C76.9893 7.66355 76.6813 6.60905 76.386 6.71582C75.7749 6.94217 76.7784 7.35983 75.9866 7.91504C75.0054 8.60537 73.0789 8.35168 71.9671 8.39453C71.6685 8.40497 71.8171 8.07276 71.6155 8.0957C70.6927 8.20323 69.7847 8.5321 68.9036 8.69141C68.4687 8.7698 68.0256 8.80968 67.5637 8.7627C67.2405 8.73024 67.3558 7.80056 67.1096 7.56934C66.8623 7.33873 66.4644 7.54117 66.2796 7.72168C66.0969 7.90223 66.2782 8.4509 66.0989 8.56348C65.5958 8.88293 64.9987 8.73914 64.4895 9.0166C64.3826 9.0747 64.5049 9.41138 64.4856 9.50098C64.3643 10.0721 63.9758 9.41504 63.8968 9.34375C63.4551 8.94507 63.1234 9.2932 62.7893 9.12695C62.5713 9.01916 62.6578 8.76303 62.5657 8.67383C62.081 8.21701 62.3117 9.24563 62.3157 9.41309C62.3354 10.424 61.561 9.10694 61.5286 9.06836C61.0782 8.50958 60.9833 9.34854 60.9104 9.51074C60.6719 10.0261 60.2222 9.8425 59.9866 9.93848C59.7532 10.0333 59.8006 9.60242 59.7815 9.56836C59.4612 9.07855 59.4119 9.90955 59.4085 9.9668C59.3583 10.783 58.6413 10.0137 58.5667 10.0078C57.2629 9.94162 56.5394 10.9256 55.2425 10.8506C55.189 10.8477 54.6607 10.1066 54.6028 10.7324C54.5946 10.8361 54.7806 11.1234 54.636 11.2207C54.0473 11.6103 53.32 11.836 52.6409 11.9785C52.4964 12.0087 52.4887 11.5237 52.3899 11.5498C51.664 11.7335 50.9592 12.128 50.2844 12.3984C50.1395 12.4569 50.055 12.1744 50.0315 12.1719C49.7551 12.1383 49.9858 12.5654 49.7268 12.5439C49.5277 12.5242 48.841 11.3515 48.721 11.3174C48.2104 11.1847 48.1546 11.5396 48.095 12.1914C48.0786 12.3709 48.5234 13.1974 48.054 12.875C48.0358 12.8555 47.9589 12.494 47.9143 12.4902C47.5796 12.4667 47.4492 12.7196 47.1057 12.7559C46.6718 12.8028 45.8928 12.9378 45.5315 13.1025C44.771 13.4462 44.4978 14.0588 43.5628 13.8223C43.5293 13.8049 43.2065 13.0312 43.0003 13.3174C42.7926 13.6061 42.4282 14.0913 42.0637 14.125C42.0617 14.9245 41.7536 15.151 41.2034 15.0186C40.6534 14.886 40.1217 14.5171 39.6585 14.9014C39.6252 14.9284 39.8046 15.3273 39.7913 15.3408C38.9406 15.8617 38.0011 16.122 36.969 16.1572C36.9255 16.1575 36.8214 15.7816 36.7327 15.7695C36.5685 15.7502 35.9304 16.1067 35.9163 16.2178C35.9118 16.2175 35.5833 15.5388 35.6438 15.9893C35.5438 16.2576 35.9156 16.2123 35.9163 16.2178C35.8954 16.389 35.69 17.5231 35.1594 17.1523C34.8852 16.9613 34.814 16.5449 34.386 16.6201C33.7254 16.7347 33.1045 17.643 32.428 18.0127C32.0398 18.226 31.2542 18.3144 30.8684 18.4844C30.0765 18.8336 29.4963 19.3745 28.7132 19.668C28.6101 19.7069 28.5149 19.2988 28.4798 19.2988C28.0936 19.3048 27.9288 19.7014 27.5647 19.7471C27.4278 19.7641 27.4402 19.3281 27.2464 19.3721C26.7033 19.4993 26.3564 20.3906 25.6975 20.2002C25.4085 20.1164 25.2005 19.4217 24.929 19.4502C24.3312 19.513 24.7103 19.9148 24.7278 20.4004C24.7572 21.4398 24.3707 21.474 23.7503 20.6328C23.7739 20.5696 23.983 20.5791 23.9534 20.4814C23.6738 19.5864 23.3426 19.6706 23.7503 20.6328C23.5562 20.7822 23.228 20.8127 23.6282 21.332C23.6618 21.3757 23.8936 20.9237 23.9182 21.5166C23.928 21.7468 23.8531 22.5898 23.4544 22.3789C23.0551 22.1673 22.5908 21.2088 22.301 21.71C22.2852 21.7393 22.4459 22.0378 22.4436 22.1113C22.4227 22.6671 21.8655 22.2236 21.7093 22.1992C21.1764 22.1197 21.0436 22.4542 20.7639 22.7412C20.6116 22.8985 21.1911 23.477 20.7161 23.2432C20.6393 23.2048 19.8616 22.4445 19.8333 22.4561C19.2798 22.6698 20.0748 24.423 19.3792 24.126C19.2168 24.0549 19.0231 23.2056 18.7796 23.668C18.7161 23.792 18.8376 24.0183 18.7112 24.1143C18.3497 24.3883 17.661 24.3629 17.8489 25.3428C17.4177 25.4207 16.8138 25.1864 16.4163 25.2715C15.9077 25.3818 15.6643 25.8643 15.1819 26.0273C15.0683 26.0651 14.9647 25.6106 14.8635 25.6543C14.0546 26.0207 13.4144 26.6524 12.635 27.0869C12.2269 26.3463 11.8018 25.5939 11.4036 24.8535C11.1997 25.3346 11.8257 25.8963 11.928 26.4258C12.0302 26.9522 11.4824 26.4525 11.4651 26.9395C11.4526 27.1121 11.516 27.7575 11.3831 27.9014C11.1618 28.1403 10.7954 28.1244 10.5081 28.1357C10.2197 28.1482 10.2066 28.4453 9.90945 28.4033C9.86261 28.3935 9.71428 28.1109 9.65945 28.0674C9.22303 27.7282 9.25584 28.6088 9.25417 28.6758C9.21311 29.685 8.81936 28.6397 8.57156 28.4736C7.43639 27.6863 7.84579 29.0744 7.28542 29.4932C7.11712 29.6182 6.61149 28.7385 6.31081 28.7266C5.83679 28.7141 5.54099 29.1233 4.96902 29.0586C4.85055 29.0394 3.97675 28.3262 4.22292 29.2393C4.24806 29.3227 4.94566 30.7079 4.41726 30.4756C4.34803 30.4466 3.60145 29.75 3.5237 29.7275C3.17062 29.6529 3.08787 30.0696 2.86355 30.0215C2.63919 29.9724 2.18101 29.0391 2.20242 28.9863C2.49362 28.3223 3.65937 30.4259 2.84499 28.3691C3.44282 29.0072 3.57637 28.4163 4.01394 28.2988C4.04541 28.2966 4.12439 28.7343 4.30788 28.6289C4.72759 28.3814 5.30053 28.1267 5.64773 27.6719C5.79309 27.4641 5.42681 27.3976 5.50906 27.1406C5.59332 26.8824 5.89598 27.1895 5.90456 26.6455C5.90529 26.5023 5.92825 25.6768 6.3782 25.9688C6.43074 26.0035 6.58171 26.2821 6.63503 26.3037C6.86208 26.3888 6.84346 26.0943 7.05593 26.1699C7.10678 26.1875 7.18781 26.5137 7.27859 26.5195C7.74992 26.5475 7.95004 26.4201 8.3987 27.2393C8.64663 26.9827 8.43746 26.021 8.59304 25.7461C8.77729 25.3968 9.13844 25.731 9.34792 25.5996C9.55845 25.4671 9.33129 25.1891 9.51003 25.0771C9.9852 24.778 10.5923 24.7893 11.0413 24.4424C11.1509 24.3599 11.0888 24.0104 11.2522 23.9082C11.3632 23.8411 11.8504 24.4075 11.9104 24.4023C13.2219 24.268 13.9125 23.1433 15.1409 22.9053C15.0939 21.4185 16.6534 23.5576 17.055 23.5791C18.0543 23.633 16.7905 21.9631 16.9094 21.3535C17.0145 20.799 17.7236 21.0903 17.8704 20.9854C18.6822 20.4115 19.0868 19.8024 20.0042 19.626C20.0299 19.6319 20.1313 20.0377 20.2522 19.9834C20.5073 19.867 20.7945 19.5756 21.0335 19.4434C21.1836 19.3609 21.5774 19.909 21.6048 19.9238C22.2921 20.1521 22.4188 19.4966 22.2864 18.7607C22.1539 18.0247 22.5926 18.7584 22.5598 18.3018C22.5489 18.1587 22.4144 17.9556 22.4153 17.875C22.4288 17.2801 23.014 17.7628 23.1712 17.7939C23.8232 17.9229 24.2762 17.2205 24.6155 17.0342C24.9493 16.8502 24.5517 16.6134 24.5432 16.5674C24.4885 15.92 24.8751 16.6583 24.9134 16.6729C25.9086 16.8847 26.2877 16.0404 27.1907 15.9805C27.2766 15.9798 27.7476 16.657 27.7229 16.0195C27.7209 15.9777 27.5076 15.6883 27.6028 15.6035C27.8795 15.3561 28.2627 15.2407 28.5852 15.0635C29.1137 15.7454 29.706 15.7919 29.2161 14.6826C29.6992 14.3921 30.3291 13.6224 30.8167 13.4951C31.4368 13.3339 31.7885 14.0072 32.2649 13.6387C32.3368 13.5807 32.1105 13.2492 32.1282 13.2246C32.5538 12.6986 32.6513 13.5359 33.0628 14.1494C33.188 14.3363 33.2897 13.9459 33.3899 14.0127C33.723 14.2347 33.8475 14.6929 34.1653 14.5586C34.6954 14.3351 34.6589 13.6377 34.1682 12.6729C34.8565 13.2688 34.8774 14.0454 35.4739 13.5078C35.5305 13.4556 35.2684 13.0972 35.3704 13.0166C36.1142 12.4337 36.9945 12.0668 37.7337 11.4609C37.826 11.383 37.5976 11.0571 37.6184 11.0303C38.0127 10.6003 38.0512 11.3774 38.4407 11.9824C38.6253 12.2677 39.3269 12.6049 39.4866 12.4746C39.6459 12.344 39.4011 12.2055 39.4173 12.0127C39.434 11.8202 39.6184 12.0996 39.5696 11.7793C39.5221 11.4574 38.7811 10.1551 39.3284 10.2432C39.8745 10.3328 39.8193 10.9947 40.469 10.5381C40.8292 10.2859 41.0702 10.2569 41.7346 9.94629C42.3985 9.63412 43.7995 8.46612 44.8255 8.64355C45.0961 8.69062 45.1338 9.53269 45.3176 9.79785C45.6186 9.70209 45.2319 9.31976 45.2268 8.97461C45.222 8.62717 45.5701 9.12563 45.5608 8.60645C45.5579 8.46375 45.5075 7.79028 45.8938 8.19727C45.9184 8.2272 45.9427 8.57086 46.1087 8.56445C46.4533 8.54974 46.589 8.34068 46.8147 9.17773C47.0069 8.71442 46.3011 7.75269 46.805 7.77539C46.8271 7.77882 46.873 8.20845 47.0081 8.18359C48.7381 7.85759 50.1284 6.71346 51.8821 6.25977C51.9166 6.24918 52.3614 6.3249 52.5032 6.44727C52.5269 6.46889 52.5265 6.88907 52.7317 6.84277C52.9375 6.79555 53.4734 6.66083 53.6516 6.49512C53.831 6.32885 53.5423 6.08443 53.6341 5.98242C53.842 5.7539 53.7547 6.33134 53.9749 6.35449C54.271 6.38566 54.7097 6.19502 54.9358 6.02344C55.0864 5.90847 54.9094 5.61997 54.9221 5.53125C55.0165 4.91559 55.5793 5.57615 55.6682 5.61719C56.2127 5.86223 56.3536 5.40906 56.7766 5.41406C56.8826 5.41765 56.8614 5.72521 56.9651 5.66504C57.3446 5.44136 57.4153 4.08983 58.0266 4.62402C58.2842 4.85129 58.2684 6.28758 58.7376 5.63867C58.8082 5.53966 58.6301 5.33388 58.6985 5.17188C58.7668 5.00961 59.0866 4.51793 59.2425 4.68359C59.3981 4.85071 59.6953 6.57811 59.8137 5.80078C59.9352 5.0204 59.6765 4.86289 60.136 4.25684C60.1432 4.23175 59.9276 3.89932 60.1214 3.78223C60.3176 3.66305 61.0743 3.53051 61.2395 3.47559C61.6543 3.33863 61.7919 4.49763 61.8596 4.56641C62.3864 5.05944 62.2984 4.05782 62.5208 3.70996C62.6183 3.56009 62.7651 3.68678 62.8714 3.54785C62.9048 3.50319 62.7764 3.14442 62.7893 3.13477C63.2753 3.05031 63.5659 5.09132 63.8499 4.64355C63.8831 4.58484 63.6485 3.99401 63.7327 3.7168C63.7556 3.63893 63.9994 2.62744 64.1634 2.80371C64.8083 3.50789 64.755 4.17328 65.4915 3.82715C65.5523 3.79836 65.4359 3.39308 65.4661 3.37695C66.3732 2.90736 67.3242 2.65426 68.2688 2.50391C69.8914 2.24606 71.564 2.28166 73.2161 2.00098C73.6807 2.99711 74.22 2.26844 74.844 2.48828C74.9234 2.5197 75.0936 3.36599 75.3303 2.72852C75.3442 2.68652 75.17 2.36039 75.4094 2.30371C76.9629 1.935 78.6164 1.83669 80.1702 2.01172C80.403 2.03764 80.2012 2.47048 80.2835 2.48926C80.9686 2.63884 81.4689 1.77564 82.1819 2.06738C82.2395 2.09387 82.3832 2.94202 82.6341 2.36035C82.6502 2.32314 82.6266 1.97448 82.7053 1.94434C83.0811 1.80009 83.1217 2.5683 83.5139 2.4043C83.6027 2.36536 83.4616 1.95203 83.6458 1.91504C84.4762 1.75538 85.3519 1.77625 86.176 1.91113C86.335 1.93877 86.1003 2.3975 86.2669 2.4082C86.9846 2.45576 87.532 2.68616 88.345 2.29883C88.4519 2.24458 88.9979 1.44309 89.2259 1.9834C89.2526 2.0501 89.1861 2.3985 89.2981 2.45312C89.8513 2.71423 90.4995 2.65529 91.0637 2.86426C91.1962 2.91481 91.0339 3.29286 91.1204 3.3457C91.5033 3.58258 91.234 3.09773 91.5911 2.90332C92.1454 2.60146 92.8521 2.61376 93.4348 2.61621C93.7128 4.46635 95.1428 3.82994 96.0344 3.6123C96.1795 3.57462 96.0603 3.13992 96.2024 3.12695C97.6224 3.00507 99.0073 3.16262 100.376 3.43848C100.505 3.46517 100.306 3.90936 100.411 3.93066C101.414 4.13059 102.316 4.06213 103.358 4.21582C104.234 4.34663 105.169 4.67652 106.08 4.84863C107.284 5.07471 108.449 4.81024 109.663 5.41699C109.73 5.45233 110.102 6.3877 110.451 5.83691C110.493 5.77082 110.491 5.45027 110.666 5.38965C110.844 5.32958 111.309 5.38971 111.477 5.49414C111.641 5.59809 111.412 5.95997 111.52 6.00293C112.024 6.19837 112.639 6.13034 113.12 6.22363C113.472 6.29451 113.533 6.31153 113.914 6.33105C114.116 6.34302 114.581 6.51674 114.851 6.48047C114.97 6.46418 114.953 6.0634 114.987 6.03906C115.481 5.72773 114.92 6.35158 115.308 6.50098C116.21 6.84689 117.319 7.0645 118.379 6.91113C118.645 6.87097 118.692 6.11944 118.958 6.65918C118.973 6.69685 118.817 7.03567 118.937 7.08398C120.003 7.50536 121.317 7.43003 122.411 7.63574C125.628 8.23311 128.757 8.89309 131.96 9.33105C132.629 9.42963 133.126 9.66554 133.775 9.69238L131.767 4.97266C130.994 3.15682 131.841 1.05866 133.657 0.286133ZM7.00515 27.749C6.98338 27.356 6.48616 27.2467 6.5071 27.5605C6.53255 27.9519 7.02127 28.0651 7.00515 27.749ZM10.5921 27.3145C11.1879 27.4846 10.149 25.6372 10.0159 26.293C10.0097 26.3335 10.5578 27.305 10.5921 27.3145ZM14.2249 25.5918C14.2192 25.0239 13.5621 24.2691 13.5452 25.0166C13.5411 25.244 14.2311 26.1567 14.2249 25.5918ZM28.5862 15.0625C28.5228 14.4365 28.81 14.3729 29.22 14.7158C29.0106 14.838 28.792 14.9385 28.5862 15.0625ZM44.2024 12.707C44.5978 12.9469 44.0656 11.5512 43.9436 12.0254C43.9371 12.0487 44.1788 12.6826 44.2024 12.707ZM43.7073 10.1846C43.693 10.1696 43.4942 10.2586 43.4944 10.2793C43.5703 10.7758 43.9764 10.5927 43.7073 10.1846ZM57.302 6.42188C57.2757 6.29951 57.1282 6.35396 57.1272 6.37695C57.1467 6.75761 57.3866 6.81762 57.302 6.42188ZM66.6585 3.58398C66.635 3.54786 66.1273 3.65434 66.1194 3.69824C66.0029 4.53607 67.0236 4.31869 66.6585 3.58398Z" fill="#2D96BC"/>
</svg>
