<svg width="28" height="29" viewBox="0 0 28 29" fill="none" xmlns="http://www.w3.org/2000/svg">
<path d="M21.0333 9.44304V6.02787C21.4847 5.81694 21.8668 5.48216 22.1352 5.06251C22.4037 4.64286 22.5474 4.15559 22.5497 3.65742V3.57906C22.5497 2.12658 21.3722 0.949106 19.9199 0.949106H19.8414C18.3889 0.949106 17.2115 2.12658 17.2115 3.57906V3.65742C17.2138 4.15559 17.3575 4.64286 17.626 5.06251C17.8944 5.48216 18.2765 5.81694 18.7278 6.02787V9.44304C17.4307 9.64168 16.2092 10.1795 15.1868 11.0021L5.82053 3.70673C5.88731 3.46563 5.92215 3.2177 5.92609 2.96885C5.92723 2.38273 5.75452 1.80944 5.4298 1.32149C5.10509 0.833534 4.64295 0.452849 4.10185 0.227582C3.56075 0.00231527 2.96499 -0.0574121 2.38994 0.0559549C1.81489 0.169322 1.28638 0.45069 0.871258 0.864469C0.456138 1.27825 0.173059 1.80585 0.0578285 2.38053C-0.0574022 2.95521 0.000392312 3.55116 0.223901 4.093C0.44741 4.63483 0.826593 5.0982 1.31348 5.4245C1.80038 5.75081 2.3731 5.92538 2.95922 5.92613C3.47197 5.92371 3.97511 5.78682 4.41841 5.52913L13.6415 12.7061C11.9458 15.2677 11.9912 18.6061 13.7557 21.1208L10.9505 23.9268C10.7237 23.8543 10.4876 23.8158 10.2495 23.8125C8.90603 23.8137 7.81769 24.9032 7.81804 26.2466C7.81839 27.59 8.90742 28.6789 10.2507 28.6792C11.5942 28.6796 12.6837 27.5912 12.6848 26.2478C12.6817 26.0098 12.6431 25.7735 12.5705 25.5468L15.3456 22.7707C17.8252 24.6796 21.2307 24.844 23.8827 23.183C26.5347 21.5218 27.873 18.3858 27.2376 15.3218C26.6021 12.2577 24.1272 9.91273 21.0333 9.44304ZM19.8831 20.6753C19.3704 20.6891 18.8602 20.6 18.3825 20.4133C17.9048 20.2267 17.4693 19.9462 17.1018 19.5884C16.7343 19.2307 16.4422 18.8029 16.2428 18.3304C16.0433 17.8579 15.9406 17.3503 15.9406 16.8374C15.9406 16.3245 16.0433 15.8169 16.2428 15.3444C16.4422 14.8719 16.7343 14.4441 17.1018 14.0864C17.4693 13.7286 17.9048 13.4481 18.3825 13.2615C18.8602 13.0748 19.3704 12.9857 19.8831 12.9995C21.9491 13.0719 23.5869 14.7672 23.588 16.8346C23.589 18.9018 21.9529 20.5989 19.8869 20.6733" fill="white"/>
</svg>
