<svg width="80" height="146" viewBox="0 0 80 146" fill="none" xmlns="http://www.w3.org/2000/svg">
<g opacity="0.52">
<path d="M34.1883 12.7801L36.6748 13.3086L33.2071 29.6228L30.7206 29.0943L34.1883 12.7801Z" fill="url(#paint0_linear_1_1817)"/>
<path d="M21.4674 36.5379L38.6392 40.1878C39.9027 40.4564 41.1507 39.6503 41.4204 38.3817L42.7244 32.2468C42.993 30.9832 42.1869 29.7352 40.9183 29.4656L23.7515 25.8167C22.488 25.5481 21.24 26.3542 20.9703 27.6228L19.6663 33.7578C19.3977 35.0213 20.2038 36.2693 21.4674 36.5379Z" fill="url(#paint1_linear_1_1817)"/>
<path d="M32.4775 11.2734C32.1032 13.0342 33.226 14.7632 34.9869 15.1375C36.7477 15.5118 38.4767 14.389 38.851 12.6281C39.2252 10.8673 38.1024 9.13832 36.3416 8.76404C34.5808 8.38977 32.8518 9.51259 32.4775 11.2734Z" fill="url(#paint2_linear_1_1817)"/>
<path d="M33.7354 10.2643C33.6211 10.8022 33.9658 11.3262 34.4986 11.4395C35.0365 11.5538 35.5606 11.2091 35.6739 10.6763C35.7882 10.1384 35.4435 9.61432 34.9107 9.50106C34.3739 9.38166 33.8498 9.72638 33.7354 10.2643Z" fill="white"/>
<path d="M-19.1172 66.9631C-21.2237 76.8734 -14.8983 86.6137 -4.98794 88.7202L36.9623 97.637C46.832 99.7349 56.6215 93.3775 58.7194 83.5078L60.7007 74.1861C64.4338 56.6235 53.1216 39.2043 35.5591 35.4713L21.574 32.4986C4.0114 28.7656 -13.4078 40.0778 -17.1408 57.6403L-19.1222 66.962L-19.1172 66.9631Z" fill="url(#paint3_linear_1_1817)" fill-opacity="0.8"/>
<path d="M-5.60499 63.76C-4.69181 64.4791 -3.60615 64.9857 -2.44918 65.2316L44.2659 75.1612C45.428 75.4082 46.6258 75.387 47.7475 75.1004C50.5123 74.394 52.4537 72.1972 52.6482 69.5602L52.6628 69.3671C53.3096 60.4352 46.8677 52.0916 37.3422 49.5472C33.3127 48.4679 29.0576 47.4521 24.5867 46.5283C21.0861 45.8054 17.685 45.1886 14.3967 44.6646C4.61917 43.1061 -4.70989 48.071 -7.7634 56.5231C-7.7865 56.5818 -7.8056 56.6467 -7.82869 56.7054C-8.7246 59.1987 -7.84458 61.9951 -5.60499 63.76Z" fill="#001966"/>
<path d="M33.6031 70.9178C28.738 69.8837 25.6323 65.1013 26.6664 60.2362C27.7005 55.371 32.4829 52.2653 37.348 53.2994C42.2132 54.3336 45.3189 59.1159 44.2848 63.9811C43.2506 68.8462 38.4683 71.9519 33.6031 70.9178Z" fill="url(#paint4_radial_1_1817)"/>
<path d="M34.1173 68.4812C30.6254 67.739 28.3963 64.3065 29.1385 60.8145C29.8808 57.3226 33.3133 55.0935 36.8052 55.8358C40.2971 56.578 42.5262 60.0105 41.784 63.5024C41.0418 66.9944 37.6093 69.2234 34.1173 68.4812Z" fill="#EEFDFF"/>
<path d="M34.3058 67.4445C31.3744 66.8214 29.5031 63.9399 30.1262 61.0084C30.7493 58.077 33.6308 56.2057 36.5622 56.8288C39.4937 57.4519 41.365 60.3334 40.7419 63.2649C40.1188 66.1963 37.2373 68.0676 34.3058 67.4445Z" fill="url(#paint5_linear_1_1817)"/>
<path d="M32.3557 60.0772C32.1249 61.1631 32.8201 62.2337 33.906 62.4646C34.992 62.6954 36.0626 62.0001 36.2934 60.9142C36.5242 59.8283 35.829 58.7576 34.743 58.5268C33.652 58.2949 32.5865 58.9913 32.3557 60.0772Z" fill="#EEFDFF"/>
<path d="M35.1906 67.1364C34.7562 67.044 34.4789 66.617 34.5713 66.1826C34.6636 65.7482 35.0906 65.471 35.525 65.5633C35.9594 65.6556 36.2367 66.0826 36.1443 66.517C36.052 66.9514 35.625 67.2287 35.1906 67.1364Z" fill="#EEFDFF"/>
<path d="M37.5839 65.5764C37.5375 65.7946 37.6784 66.0049 37.8916 66.0502C38.1098 66.0966 38.32 65.9557 38.3653 65.7425C38.4117 65.5243 38.2708 65.3141 38.0577 65.2688C37.8445 65.2235 37.6292 65.3633 37.5839 65.5764Z" fill="#EEFDFF"/>
<path d="M9.83946 65.867C4.97428 64.8329 1.8686 60.0506 2.90272 55.1854C3.93685 50.3202 8.71918 47.2145 13.5844 48.2486C18.4495 49.2828 21.5552 54.0651 20.5211 58.9303C19.487 63.7955 14.7046 66.9011 9.83946 65.867Z" fill="url(#paint6_radial_1_1817)"/>
<path d="M10.3517 63.4304C6.85976 62.6882 4.63068 59.2557 5.37292 55.7638C6.11515 52.2718 9.54764 50.0427 13.0396 50.785C16.5315 51.5272 18.7606 54.9597 18.0184 58.4516C17.2761 61.9436 13.8437 64.1727 10.3517 63.4304Z" fill="#EEFDFF"/>
<path d="M10.591 62.4054C7.65956 61.7823 5.78828 58.9008 6.41137 55.9694C7.03447 53.0379 9.91599 51.1667 12.8474 51.7898C15.7789 52.4128 17.6502 55.2944 17.0271 58.2258C16.404 61.1573 13.5224 63.0285 10.591 62.4054Z" fill="url(#paint7_linear_1_1817)"/>
<path d="M8.56661 55.0225C8.33579 56.1084 9.03106 57.1791 10.117 57.4099C11.2029 57.6407 12.2735 56.9454 12.5044 55.8595C12.7352 54.7736 12.0399 53.7029 10.954 53.4721C9.86805 53.2413 8.79743 53.9366 8.56661 55.0225Z" fill="#EEFDFF"/>
<path d="M11.4758 62.0973C11.0414 62.005 10.7641 61.578 10.8564 61.1436C10.9488 60.7092 11.3758 60.4319 11.8101 60.5242C12.2445 60.6166 12.5218 61.0436 12.4295 61.4779C12.3372 61.9123 11.9102 62.1896 11.4758 62.0973Z" fill="#EEFDFF"/>
<path d="M13.8201 60.5254C13.7737 60.7436 13.9146 60.9539 14.1277 60.9992C14.3459 61.0456 14.5562 60.9046 14.6015 60.6915C14.6479 60.4733 14.507 60.263 14.2938 60.2177C14.0807 60.1724 13.8654 60.3123 13.8201 60.5254Z" fill="#EEFDFF"/>
<path d="M-4.33444 54.9042C-4.03209 55.2284 -0.483637 50.7108 7.09253 47.7546C9.75358 46.7133 12.2954 46.1079 12.2264 45.7591C12.1584 45.4053 9.43192 45.4569 7.14648 45.9788C-0.138343 47.6391 -4.69198 54.5153 -4.33444 54.9042Z" fill="#CEE6FF"/>
<path opacity="0.8" d="M51.0856 102.228C38.7248 102.942 36.1541 101.462 33.4081 104.15C33.093 104.46 31.4797 106.037 31.2278 108.444C31.0216 110.363 31.7635 112.037 32.2822 112.816C35.4579 117.538 47.4768 115.139 54.8855 111.298C56.5012 110.459 60.8343 108.214 60.5456 105.904C60.4288 104.956 59.5778 104.319 58.9625 103.87C56.2483 101.893 52.9489 102.12 51.0856 102.228Z" fill="url(#paint8_linear_1_1817)"/>
<path d="M-14.5883 99.2889C-14.6109 99.3954 -14.6325 99.4969 -14.649 99.5995C-14.8216 100.586 -14.7497 101.371 -14.7082 101.724C-13.581 112.216 -12.758 117.801 -10.9482 122.561C-10.6345 123.381 -10.2952 124.179 -9.91195 124.971C-9.4149 126.026 -8.84757 127.075 -8.20444 128.167C-6.77357 130.592 -4.14742 132.11 -3.30597 132.618C-0.231384 134.497 2.752 134.908 4.69627 135.343L5.03625 135.415C6.99929 135.811 9.88593 136.653 13.4548 136.181C14.43 136.059 17.4517 135.741 19.7404 134.106C26.0509 129.619 29.0107 125.401 36.4369 112.596C36.6103 112.304 36.9691 111.664 37.215 110.756C37.2863 110.495 37.3486 110.228 37.3895 109.961C37.6425 108.296 37.3157 106.54 36.4461 104.817C34.9535 101.858 32.117 99.8077 28.8817 99.1094L13.2868 95.7256L-2.02496 92.4073C-5.33025 91.6889 -8.83282 92.3976 -11.4772 94.5086C-12.7553 95.531 -13.6896 96.7326 -14.2215 98.0621C-14.294 98.2536 -14.3665 98.445 -14.4288 98.6386C-14.4792 98.8506 -14.5408 99.0656 -14.5883 99.2889Z" fill="url(#paint9_linear_1_1817)" fill-opacity="0.8"/>
<path d="M13.4507 72.6556C13.358 73.5163 13.9202 74.3146 14.7503 74.576L26.177 78.1822C27.0021 78.4424 27.9258 78.1137 28.342 77.3536C28.5302 77.017 28.6901 76.6639 28.8279 76.2901C28.8658 76.1867 28.8631 76.0748 28.8154 75.9745C28.7678 75.8742 28.6822 75.803 28.5778 75.7702L14.1589 71.2203C14.0545 71.1875 13.9454 71.2015 13.8502 71.2502C13.7539 71.304 13.6878 71.3907 13.6601 71.4961C13.5618 71.8836 13.4961 72.2675 13.4507 72.6556Z" fill="#CEE6FF"/>
<path d="M13.4316 72.6259C13.033 76.3227 15.2781 79.9078 18.9617 81.0674C22.5894 82.215 26.4271 80.6282 28.247 77.4562C27.7984 78.1193 26.9372 78.403 26.1578 78.1525L14.725 74.5503C13.901 74.2849 13.3388 73.4866 13.4316 72.6259Z" fill="url(#paint10_linear_1_1817)"/>
<path d="M73.7848 17.3415C73.7848 19.2564 72.2335 20.8077 70.3186 20.8077C68.4042 20.8077 66.8524 19.2559 66.8524 17.3415C66.8524 15.4276 68.4042 13.8752 70.3186 13.8752C72.233 13.8752 73.7848 15.4276 73.7848 17.3415Z" fill="#50A8EB" stroke="url(#paint11_linear_1_1817)" stroke-width="1.21984" stroke-miterlimit="10" stroke-linejoin="round"/>
<path d="M62.4881 25.3024C63.6934 25.3024 64.6705 24.3253 64.6705 23.1199C64.6705 21.9146 63.6934 20.9375 62.4881 20.9375C61.2828 20.9375 60.3057 21.9146 60.3057 23.1199C60.3057 24.3253 61.2828 25.3024 62.4881 25.3024Z" fill="#50A8EB" stroke="url(#paint12_linear_1_1817)" stroke-width="1.21984" stroke-miterlimit="10" stroke-linejoin="round"/>
<path d="M57.9941 29.7949C58.9158 29.7949 59.663 29.0477 59.663 28.126C59.663 27.2042 58.9158 26.457 57.9941 26.457C57.0724 26.457 56.3252 27.2042 56.3252 28.126C56.3252 29.0477 57.0724 29.7949 57.9941 29.7949Z" fill="#50A8EB" stroke="url(#paint13_linear_1_1817)" stroke-width="1.21984" stroke-miterlimit="10" stroke-linejoin="round"/>
</g>
<defs>
<linearGradient id="paint0_linear_1_1817" x1="32.7002" y1="33.7438" x2="25.3622" y2="30.8636" gradientUnits="userSpaceOnUse">
<stop stop-color="#1B36FF"/>
<stop offset="0.164" stop-color="#1750FD"/>
<stop offset="0.518" stop-color="#0D95F8"/>
<stop offset="1" stop-color="#00FCF1"/>
</linearGradient>
<linearGradient id="paint1_linear_1_1817" x1="43.4567" y1="43.9911" x2="37.3012" y2="15.8455" gradientUnits="userSpaceOnUse">
<stop stop-color="#1B36FF"/>
<stop offset="0.164" stop-color="#1750FD"/>
<stop offset="0.518" stop-color="#0D95F8"/>
<stop offset="1" stop-color="#00FCF1"/>
</linearGradient>
<linearGradient id="paint2_linear_1_1817" x1="38.7427" y1="17.5879" x2="31.7055" y2="5.66029" gradientUnits="userSpaceOnUse">
<stop stop-color="#1B36FF"/>
<stop offset="0.164" stop-color="#1750FD"/>
<stop offset="0.518" stop-color="#0D95F8"/>
<stop offset="1" stop-color="#00FCF1"/>
</linearGradient>
<linearGradient id="paint3_linear_1_1817" x1="62.8386" y1="118.48" x2="7.11657" y2="-13.3874" gradientUnits="userSpaceOnUse">
<stop stop-color="#1B36FF"/>
<stop offset="0.164" stop-color="#1750FD"/>
<stop offset="0.518" stop-color="#0D95F8"/>
<stop offset="1" stop-color="#00FCF1"/>
</linearGradient>
<radialGradient id="paint4_radial_1_1817" cx="0" cy="0" r="1" gradientUnits="userSpaceOnUse" gradientTransform="translate(35.4765 62.1087) rotate(-168) scale(8.91178)">
<stop offset="0.1296" stop-color="#3280FC"/>
<stop offset="1"/>
</radialGradient>
<linearGradient id="paint5_linear_1_1817" x1="40.745" y1="63.2655" x2="30.1248" y2="61.0081" gradientUnits="userSpaceOnUse">
<stop stop-color="#030D14"/>
<stop offset="1" stop-color="#0B2F45"/>
</linearGradient>
<radialGradient id="paint6_radial_1_1817" cx="0" cy="0" r="1" gradientUnits="userSpaceOnUse" gradientTransform="translate(11.7117 57.0577) rotate(-168) scale(8.91178)">
<stop offset="0.1296" stop-color="#3280FC"/>
<stop offset="1"/>
</radialGradient>
<linearGradient id="paint7_linear_1_1817" x1="17.029" y1="58.2262" x2="6.4089" y2="55.9688" gradientUnits="userSpaceOnUse">
<stop stop-color="#030D14"/>
<stop offset="1" stop-color="#0B2F45"/>
</linearGradient>
<linearGradient id="paint8_linear_1_1817" x1="60.7947" y1="124.534" x2="49.1625" y2="84.2786" gradientUnits="userSpaceOnUse">
<stop stop-color="#1B36FF"/>
<stop offset="0.164" stop-color="#1750FD"/>
<stop offset="0.518" stop-color="#0D95F8"/>
<stop offset="1" stop-color="#00FCF1"/>
</linearGradient>
<linearGradient id="paint9_linear_1_1817" x1="22.2484" y1="135.043" x2="0.201009" y2="88.494" gradientUnits="userSpaceOnUse">
<stop stop-color="#1B36FF"/>
<stop offset="0.148441" stop-color="#1750FD"/>
<stop offset="0.5491" stop-color="#0CA1F7"/>
<stop offset="1" stop-color="#00FCF1"/>
</linearGradient>
<linearGradient id="paint10_linear_1_1817" x1="37.1198" y1="95.1136" x2="32.3665" y2="65.6371" gradientUnits="userSpaceOnUse">
<stop stop-color="#1B36FF"/>
<stop offset="0.516846" stop-color="#1750FD"/>
<stop offset="0.689774" stop-color="#0D95F8"/>
<stop offset="1" stop-color="#00FCF1"/>
</linearGradient>
<linearGradient id="paint11_linear_1_1817" x1="63.4387" y1="17.359" x2="70.3362" y2="24.2564" gradientUnits="userSpaceOnUse">
<stop offset="0.000844595" stop-color="#0173EC"/>
<stop offset="0.555" stop-color="#0D95F8"/>
<stop offset="1" stop-color="#406DF6"/>
</linearGradient>
<linearGradient id="paint12_linear_1_1817" x1="58.1563" y1="23.131" x2="62.4991" y2="27.4738" gradientUnits="userSpaceOnUse">
<stop offset="0.000844595" stop-color="#0173EC"/>
<stop offset="0.555" stop-color="#0D95F8"/>
<stop offset="1" stop-color="#406DF6"/>
</linearGradient>
<linearGradient id="paint13_linear_1_1817" x1="54.6816" y1="28.1344" x2="58.0026" y2="31.4554" gradientUnits="userSpaceOnUse">
<stop offset="0.000844595" stop-color="#0173EC"/>
<stop offset="0.555" stop-color="#0D95F8"/>
<stop offset="1" stop-color="#406DF6"/>
</linearGradient>
</defs>
</svg>
